<svg width="2222" height="1099" xmlns="http://www.w3.org/2000/svg" xmlns:xlink="http://www.w3.org/1999/xlink" xml:space="preserve" overflow="hidden"><defs><clipPath id="clip0"><path d="M1680.11 1070.44 2198.28 552.267 2716.45 1070.44 2198.28 1588.6Z" fill-rule="evenodd" clip-rule="evenodd"/></clipPath><clipPath id="clip1"><path d="M1680.11 1070.44 2198.28 552.267 2716.45 1070.44 2198.28 1588.6Z" fill-rule="evenodd" clip-rule="evenodd"/></clipPath><clipPath id="clip2"><path d="M1680.11 1070.44 2198.28 552.267 2716.45 1070.44 2198.28 1588.6Z" fill-rule="evenodd" clip-rule="evenodd"/></clipPath></defs><g transform="translate(-1089 -552)"><g clip-path="url(#clip0)"><g clip-path="url(#clip1)"><g clip-path="url(#clip2)"><path d="M2382.62 1310.01 2567.34 1219.55 2567.35 978.626 2382.62 1070.99 2382.62 1310.01ZM2437.23 1240.7C2437.23 1255.28 2428.5 1270.31 2417.74 1274.28 2406.97 1278.24 2398.25 1269.65 2398.25 1255.07 2398.25 1240.49 2406.97 1225.46 2417.74 1221.49 2428.51 1217.52 2437.22 1226.12 2437.23 1240.7ZM2497.22 1211.83C2497.22 1226.41 2488.5 1241.44 2477.73 1245.41 2466.97 1249.37 2458.24 1240.78 2458.25 1226.2 2458.25 1211.62 2466.97 1196.59 2477.74 1192.62 2488.5 1188.66 2497.22 1197.26 2497.22 1211.83ZM2517.12 1052.56C2517.12 1037.98 2525.84 1022.95 2536.61 1018.98 2547.37 1015.02 2556.1 1023.61 2556.1 1038.18 2556.1 1052.76 2547.38 1067.79 2536.61 1071.76 2525.84 1075.73 2517.12 1067.13 2517.12 1052.56ZM2458.25 1082.3C2458.25 1067.72 2466.97 1052.69 2477.74 1048.72 2488.51 1044.76 2497.23 1053.35 2497.23 1067.93 2497.23 1082.5 2488.51 1097.53 2477.74 1101.5 2466.98 1105.47 2458.25 1096.87 2458.25 1082.3ZM2536.6 1162.88C2547.36 1158.92 2556.09 1167.51 2556.08 1182.09 2556.08 1196.67 2547.36 1211.7 2536.59 1215.67 2525.83 1219.64 2517.11 1211.04 2517.1 1196.47 2517.12 1181.89 2525.84 1166.86 2536.6 1162.88ZM2417.74 1077.58C2428.5 1073.62 2437.23 1082.21 2437.23 1096.79 2437.23 1111.37 2428.5 1126.4 2417.74 1130.37 2406.97 1134.33 2398.25 1125.74 2398.25 1111.16 2398.25 1096.58 2406.98 1081.56 2417.74 1077.58Z" fill="#F72B09"/><path d="M2552.94 959.743 2370.97 868.756 2188.99 959.737 2370.95 1050.72 2552.94 959.743ZM2344.58 954.071C2344.58 943.878 2356.79 935.608 2371.87 935.609 2386.95 935.61 2399.17 943.874 2399.16 954.071 2399.16 964.264 2386.95 972.534 2371.87 972.533 2356.79 972.534 2344.57 964.269 2344.58 954.071Z" fill="#F72B09"/><path d="M1845.4 905.149 1781.06 1098.16 1974.07 1033.82 2038.4 840.815 1845.4 905.149ZM1922.79 982.538C1912.13 993.193 1897.64 995.992 1890.43 988.786 1883.22 981.574 1886.02 967.092 1896.68 956.431 1907.34 945.769 1921.83 942.976 1929.04 950.182 1936.24 957.402 1933.44 971.882 1922.79 982.538Z" fill="#F72B09"/><path d="M2125.15 1118.75C2129.03 1110.33 2137.75 1108.78 2146.41 1113.88L2146.41 959.75 2167.29 949.313 2061.94 843.97 1996.64 1039.9 2146.41 1189.67 2146.41 1163.26C2142.68 1162.22 2138.78 1159.94 2135.11 1156.28 2124.8 1145.96 2120.34 1129.16 2125.15 1118.75ZM2068.74 894.243C2073.55 883.825 2085.8 883.738 2096.1 894.042 2106.41 904.347 2110.87 921.145 2106.06 931.563 2101.26 941.981 2089.01 942.068 2078.7 931.763 2068.4 921.459 2063.94 904.661 2068.74 894.243ZM2096.9 1000.93C2101.71 990.514 2113.95 990.427 2124.26 1000.73 2134.56 1011.04 2139.03 1027.83 2134.22 1038.25 2129.41 1048.67 2117.16 1048.76 2106.86 1038.45 2096.55 1028.15 2092.1 1011.34 2096.9 1000.93ZM2036.1 1057.26C2025.79 1046.96 2021.33 1030.16 2026.14 1019.74 2030.95 1009.32 2043.19 1009.23 2053.5 1019.54 2063.8 1029.85 2068.27 1046.64 2063.46 1057.06 2058.65 1067.48 2046.4 1067.57 2036.1 1057.26Z" fill="#F72B09"/><path d="M1954.55 1292.06 2146.4 1226.35 2146.4 1222.66 1980.14 1056.4 1784.21 1121.71 1954.55 1292.06ZM2058.67 1185.22C2069.09 1180.42 2085.89 1184.88 2096.19 1195.18 2106.49 1205.49 2106.41 1217.74 2095.99 1222.54 2085.57 1227.35 2068.77 1222.89 2058.47 1212.58 2048.16 1202.28 2048.26 1190.02 2058.67 1185.22ZM1943.39 1150.27C1953.81 1145.46 1970.61 1149.92 1980.91 1160.23 1991.22 1170.53 1991.13 1182.78 1980.71 1187.59 1970.29 1192.4 1953.5 1187.93 1943.19 1177.63 1932.88 1167.32 1932.98 1155.07 1943.39 1150.27ZM1836.72 1126.27C1847.14 1121.46 1863.93 1125.92 1874.24 1136.23 1884.55 1146.53 1884.46 1158.78 1874.04 1163.59 1863.62 1168.39 1846.83 1163.93 1836.52 1153.63 1826.22 1143.32 1826.3 1131.07 1836.72 1126.27Z" fill="#F72B09"/><path d="M2174.57 978.62 2174.56 1219.53 2359.29 1310.01 2359.28 1070.97 2174.57 978.62ZM2335.8 1242.74C2335.8 1257.32 2327.07 1265.92 2316.31 1261.94 2305.55 1257.97 2296.82 1242.94 2296.82 1228.37 2296.82 1213.79 2305.55 1205.19 2316.3 1209.16 2327.06 1213.13 2335.8 1228.16 2335.8 1242.74ZM2233.18 1059.73C2233.18 1074.31 2224.45 1082.91 2213.7 1078.94 2202.93 1074.98 2194.21 1059.94 2194.21 1045.36 2194.21 1030.79 2202.93 1022.19 2213.69 1026.16 2224.46 1030.13 2233.18 1045.16 2233.18 1059.73Z" fill="#F72B09"/></g></g></g><text fill="#FFFFFF" font-family="Yasmen,Yasmen_MSFontService,sans-serif" font-weight="400" font-size="330" transform="matrix(1 0 0 1 1287.92 1366)"></text><text fill="#FFFFFF" font-family="Yasmen,Yasmen_MSFontService,sans-serif" font-weight="400" font-size="330" transform="matrix(1 0 0 1 1490.16 1366)">core</text><text fill="#FFFFFF" font-family="Yasmen,Yasmen_MSFontService,sans-serif" font-weight="400" font-size="330" transform="matrix(1 0 0 1 2181.09 1366)"></text><text fill="#FFFFFF" font-family="Yasmen,Yasmen_MSFontService,sans-serif" font-weight="400" font-size="330" transform="matrix(1 0 0 1 2448.65 1366)">ards</text><text fill="#FFFFFF" font-family="Aptos Display,Aptos Display_MSFontService,sans-serif" font-weight="400" font-size="83" transform="matrix(1 0 0 1 2063.07 1499)">ONLINE</text><path d="M0 0 736.63 0.000360892" stroke="#FFFFFF" stroke-width="4.58333" stroke-miterlimit="8" fill="none" fill-rule="evenodd" transform="matrix(-1 0 0 1 2029.13 1474.5)"/><path d="M0 0 736.63 0.000360892" stroke="#FFFFFF" stroke-width="4.58333" stroke-miterlimit="8" fill="none" fill-rule="evenodd" transform="matrix(-1 0 0 1 3105.13 1474.5)"/></g></svg>